<svg xmlns="http://www.w3.org/2000/svg" width="1080" height="675" viewBox="0 0 1080 675"><g fill="#bc622d"><path d="M104.29 673.14c-.76-3.04-.59-15.02.34-22.36 1.43-11.14 1.77-12.32 2.7-11.39.51.51.42 4.22-.51 11.22-.93 7.17-1.1 12.66-.68 17.47.51 5.06.42 6.92-.34 6.92-.51 0-1.18-.84-1.52-1.86zM215.58 673.73c-1.35-.68-4.22-1.69-6.33-2.19-3.04-.76-3.46-1.1-2.28-1.69 1.77-1.01 6.24.17 11.56 3.04 3.21 1.69 3.46 2.03 1.69 2.03-1.18 0-3.21-.59-4.64-1.18zM376.9 670.44c-1.6-4.98-6.58-13.16-10.38-16.88-3.38-3.29-7.34-5.15-15.61-7.26-11.31-2.78-20.76-7.26-19.07-8.94.25-.25 2.7.76 5.57 2.11 2.78 1.43 8.44 3.38 12.4 4.3 9.03 2.11 16.37 5.91 20.33 10.46 1.6 1.94 4.56 6.92 6.58 11.14 3.46 7 3.97 7.68 6.92 8.52l3.21.84-4.3.17-4.22.08-1.43-4.56zM419.09 665.13c.08-6.58.59-11.22 1.43-13.58 1.43-3.97 12.15-20.42 13.33-20.42 1.43 0 .59 1.69-4.72 9.62-7.17 10.63-8.44 14.68-7.85 24.05.25 3.97.68 7.93 1.01 8.77.51 1.1.17 1.43-1.35 1.43-2.03 0-2.03 0-1.86-9.87zM1074.85 672.13c-4.05-1.43-10.04-6.41-10.04-8.44 0-1.27.25-1.35 1.27-.51 1.86 1.52 2.11.84 1.27-2.95-.84-3.46-.42-6.67.76-5.91.42.17.93 2.36 1.27 4.72.59 4.64 2.53 9.2 3.88 9.2.42 0 .25-1.77-.42-3.97-.59-2.28-1.43-7-1.69-10.55l-.59-6.58h3.88c3.54 0 3.88.17 3.88 2.11 0 1.86-.25 2.03-2.53 1.6-2.45-.51-2.53-.42-2.53 2.45 0 4.47 1.27 7.09 4.22 8.61 2.36 1.27 2.53 1.6 2.53 6.33 0 5.57-.17 5.65-5.15 3.88zM490.81 664.37c2.95-3.88 10.97-10.46 12.74-10.46 1.18 0 1.1.25-.25 1.52-5.06 4.64-13.84 11.98-14.26 11.98-.34 0 .42-1.35 1.77-3.04M510.05 649.69c3.21-3.46 12.15-9.62 12.91-8.86s-3.46 4.22-10.13 8.35l-5.32 3.21 2.53-2.7z"/><path d="M429.47 649.86c0-1.18 8.61-10.72 9.96-10.97 1.52-.42.93.59-2.95 5.48-2.95 3.54-7 6.75-7 5.48zM993.94 644.71c-3.71-1.18-9.28-4.3-9.28-5.15 0-1.27 1.35-1.01 4.81 1.1 2.78 1.6 4.3 1.86 11.64 1.77 4.64 0 9.96-.51 11.81-1.01 1.86-.59 7.34-1.18 12.23-1.52 10.04-.51 16.2.68 16.71 3.38.25 1.27 0 1.43-1.18.93-7.59-3.21-14.26-3.46-26.41-.84-7.34 1.52-17.72 2.28-20.33 1.35zM525.49 636.61c1.01-1.27 2.11-4.64 2.62-8.27 1.27-8.18 2.53-12.4 3.54-12.4.59 0 .76.84.42 2.03-.25 1.18-.93 5.06-1.43 8.69-1.1 7.93-2.87 12.07-5.15 12.07-1.6 0-1.6 0 0-2.11zM442.13 629.02c0-2.95 7.93-12.23 10.38-12.23 1.35 0 .93.84-2.53 4.47-2.36 2.45-4.56 5.32-4.81 6.33-.51 1.6-3.04 2.78-3.04 1.43M324.51 621.17c-.59-1.77 2.87-15.52 4.64-18.73 2.19-3.97-.17 8.69-3.8 19.83-.08.51-.51 0-.84-1.1M1042.03 595.77c-2.11-1.35-5.82-4.22-8.35-6.41-6.75-5.74-8.27-6.33-16.96-6.33-9.7 0-17.63-1.69-28.35-5.82-4.56-1.86-11.48-3.97-15.27-4.81-3.88-.76-7-1.86-7-2.28 0-1.69 14.43 1.27 24.05 4.89 12.91 4.89 15.52 5.48 23.88 5.48 10.29 0 13.33.84 18.82 5.32 8.02 6.58 11.31 9.2 12.49 9.87.59.34 1.01 1.1.84 1.6-.25.68-1.69.08-4.13-1.52zM390.99 593.16c-1.6-1.1-3.88-4.05-5.74-7.51-2.87-5.48-7.51-10.63-11.48-12.74-1.01-.51-3.8-1.52-6.16-2.28-2.45-.68-6.24-2.28-8.61-3.38-2.28-1.18-5.65-2.62-7.43-3.12-1.77-.51-3.29-1.27-3.38-1.77-.34-1.86 3.63-1.18 8.77 1.52 2.95 1.6 8.27 3.8 11.73 4.89 7.68 2.45 14.34 8.18 18.48 15.95 1.69 3.12 3.88 5.91 5.65 7 1.52 1.01 2.87 2.11 2.87 2.53 0 1.1-2.03.59-4.72-1.1zM47 573.16c-3.21-2.53-5.99-5.23-6.24-5.82-.93-2.53.68-2.19 4.22 1.01 2.03 1.77 5.06 4.39 6.83 5.65 1.69 1.35 2.87 2.7 2.62 3.21-.84 1.27-1.35.93-7.43-4.05M31.81 555.44c-.93-.84-.68-2.78.34-2.78.51 0 1.86-.76 3.04-1.69s3.12-1.69 4.39-1.69c1.94 0 1.69.34-2.19 2.87-2.45 1.52-4.22 3.04-3.88 3.38.25.25.17.51-.34.51-.42 0-1.1-.25-1.35-.59zM745.88 445.33c0-7.43.51-8.27 4.64-8.27h3.63l.59 5.48c.25 2.95.34 5.82 0 6.33-.25.42-2.36.84-4.72.84h-4.13v-4.39z"/></g><g fill="#bd6a31"><path d="M168.24 673.73c1.27-.93 3.8-1.27 9.7-1.18 4.47.08 7.34.25 6.41.51-.93.25-2.03.76-2.45 1.18-.51.42-4.05.76-8.02.76-6.58-.08-7.09-.17-5.65-1.27zM446.85 674.33c-.25-.42-.68-2.28-1.01-4.05-1.01-6.83 2.78-14.26 7.85-15.19 2.62-.51 2.87-.34 4.13 2.7 1.6 3.88 1.01 10.63-1.35 14.51-1.43 2.36-2.11 2.7-5.4 2.7-2.11 0-3.97-.34-4.22-.68zM1038.57 674.24c-3.8-1.18-5.74-2.62-7.09-5.15-2.78-5.48-.42-8.77 6.33-8.69 4.98.08 7.85 1.77 10.29 5.91 1.35 2.19 3.29 3.71 7.76 5.74 4.64 2.19 5.48 2.87 3.8 2.87-1.27.08-3.88-.68-5.91-1.52-3.63-1.69-3.71-1.69-5.48 0s-5.65 2.03-9.7.84M1074.68 672.13c-1.69-.68-5.65-3.38-8.69-6.07-3.04-2.78-7.68-6.58-10.21-8.52s-6.83-5.57-9.45-8.1c-2.62-2.45-5.48-4.89-6.41-5.48-1.27-.68-1.43-1.18-.76-1.86 1.43-1.43 3.63 0 8.1 4.98 1.94 2.28 6.75 6.41 10.46 9.2 3.8 2.87 7.68 6.16 8.61 7.34 1.77 2.19 10.46 7.17 12.57 7.17.59 0 1.1.59 1.1 1.27 0 1.52-1.1 1.52-5.32.08zM402.64 668.67c-6.67-4.72-5.82-18.56 1.18-18.56 1.94 0 2.78.59 3.88 2.95 1.69 3.38 1.86 9.2.42 13.5-1.18 3.38-2.7 3.97-5.48 2.11M1070.72 649.43c-.08-1.01-.76-3.97-1.69-6.5-1.35-4.05-1.43-4.89-.42-7.43 2.7-6.33-2.95-23.96-9.37-29.62-1.6-1.43-5.65-4.05-9.03-5.65-5.57-2.78-7.76-4.47-6.92-5.23.17-.17 3.46 1.27 7.34 3.12 11.98 5.74 17.21 12.74 19.91 26.83 1.18 6.24 1.69 7.26 3.63 8.35 4.47 2.28 5.82 5.06 5.82 11.81 0 5.48-.17 6.24-1.52 6.24-.84 0-1.94-.42-2.53-1.01-.76-.76-1.52-.76-3.12 0-1.94.84-2.11.76-2.11-.93zM956.05 644.96c-2.7-1.35-5.4-3.63-6.92-5.74-3.21-4.3-1.77-5.06 1.86-.93 1.43 1.69 4.3 3.97 6.33 5.15s3.71 2.53 3.71 2.95c0 1.01.08 1.01-4.98-1.43M520.09 643.44c.25-1.69 5.74-7.26 7.09-7.26 1.77 0-.17 2.87-3.97 5.82-2.03 1.69-3.21 2.19-3.12 1.43zM983.81 640.32c-1.18-.51-2.95-.68-4.05-.51-1.52.34-1.69.17-.84-.84 1.27-1.6 6.41-1.01 9.28.93l1.86 1.35-2.03-.08c-1.18 0-3.04-.42-4.22-.84zM331.17 638.63c-3.63-2.28-9.62-3.29-13.5-2.45l-3.38.76 2.11-1.77c1.77-1.43 2.87-1.6 6.5-1.18 4.39.51 12.07 3.63 12.07 4.81 0 1.35-1.35 1.35-3.8-.17M441.28 633.07c0-2.87 1.52-6.16 2.87-6.16 1.1 0 1.1.42 0 3.21-1.69 4.05-2.87 5.23-2.87 2.95M68.01 617.46c-3.04-3.04-3.12-3.46-4.56-15.61-.93-8.1-4.98-17.47-9.79-22.87-3.71-4.05-2.53-5.91 1.27-2.19 5.15 4.89 10.88 18.31 10.88 25.48.08 5.82 1.52 11.14 3.97 14.34 2.95 3.88 1.77 4.39-1.77.84zM328.64 594.84c0-7.93.25-10.13 1.1-10.13.93 0 1.1 1.94.84 9.28-.34 12.99-1.94 13.67-1.94.84zM990.31 577.29c-5.32-2.53-4.3-3.97 1.27-1.86 5.15 1.94 6.41 3.04 4.3 3.46-.84.25-3.38-.51-5.57-1.6M1029.8 569.36c.25-1.52 2.19-6.07 4.3-10.13 2.03-4.05 4.3-9.79 4.98-12.82 1.69-7.09 2.11-8.1 3.38-8.1 1.77 0-2.53 13.67-7.26 23.12-2.28 4.64-4.13 8.86-4.13 9.53 0 .59-.42 1.1-.93 1.1-.59 0-.68-1.01-.34-2.7M41.68 568.52c-1.43-1.52-4.3-4.89-6.5-7.51-2.11-2.62-5.06-5.23-6.41-5.82-3.46-1.43-2.53-2.53 2.11-2.53 3.29 0 5.06 1.1 2.95 1.86-.42.17 2.45 4.05 6.41 8.69 4.05 4.64 6.24 7.51 5.06 6.41-2.19-2.03-3.29-1.43-1.27.59.59.59.84 1.01.59 1.01s-1.6-1.27-2.95-2.7zM1075.02 524.14c-2.62-2.28-3.46-3.46-2.7-3.88 1.1-.76 7.51 4.3 7.59 6.07.17 1.69-.93 1.18-4.89-2.19M746.72 447.69c0-1.6.42-3.21.84-3.46.51-.25.84.25.84 1.18 0 1.18.51 1.69 1.52 1.52 1.69-.25 1.86-.59 1.86-4.39 0-3.12-2.11-4.22-2.78-1.43-.25.76-.42 0-.51-1.69-.08-3.21-.08-3.21 3.21-3.21 2.7 0 3.38.34 3.8 1.94 1.77 6.75-.84 12.4-5.91 12.4-2.7 0-2.87-.17-2.87-2.87zM1062.96 129.94c-1.1-.68-1.52-2.03-1.52-4.64 0-4.98 1.94-6.33 9.03-6.33h5.32v3.71c0 5.23-1.94 7.43-7.26 7.85-2.28.17-4.81-.08-5.57-.59M904.33 120.57c-1.01-.59-1.52-1.86-1.52-4.05 0-4.64 1.94-5.99 8.27-5.99 5.65 0 6.24.68 3.97 4.05-1.18 1.52-1.18 1.77-.08 1.35.68-.25 1.43-1.01 1.69-1.69.84-2.28 2.19-1.18 2.19 1.77 0 2.36-.42 3.12-2.53 4.22-2.78 1.43-9.79 1.69-11.98.34z"/></g><g fill="#cf7b30"><path d="M619.31 672.81c-2.87-2.03-3.29-2.11-12.66-1.69-5.32.25-19.66.68-31.81 1.01-19.49.42-22.19.34-22.19-.84 0-2.28 1.94-2.62 13.58-2.62 10.72 0 11.64-.17 14.43-2.03 1.6-1.18 5.23-5.15 7.93-8.86 9.7-13.25 17.04-19.49 28.43-24.38 5.32-2.28 7.34-2.62 15.86-2.95 7.51-.25 10.88 0 14.77 1.1 4.81 1.35 15.02 6.41 15.95 7.93.76 1.35-1.1 5.06-3.97 7.68-2.36 2.11-3.38 2.53-6.5 2.28-6.58-.34-7.17-5.82-.59-6.33 3.38-.34 3.97.84 1.6 3.38-1.52 1.69-.34 2.11 2.36.68 3.38-1.86.68-6.75-3.71-6.75-1.27 0-3.38 1.01-4.89 2.36-7.17 6.41 3.8 12.15 12.4 6.5 5.23-3.38 6.5-11.48 4.13-26.24-1.6-9.79-.76-16.03 3.12-23.37 2.87-5.23 10.29-12.74 16.2-16.2 9.87-5.74 22.95-7.76 30.97-4.72 9.2 3.46 15.78 10.13 19.32 19.24l1.6 4.39-1.69 3.88c-.93 2.19-1.94 6.07-2.19 8.69s-.84 5.32-1.35 5.91c-1.01 1.27-.25 2.19 1.27 1.6.68-.25 1.52-3.12 2.19-7 1.94-12.99 2.95-15.52 8.52-21.18 13.25-13.75 36.62-10.8 54.51 6.92 12.15 11.98 13.84 22.36 5.23 31.47-3.12 3.21-1.77 3.63 1.94.51 6.41-5.4 7-12.15 2.03-22.02l-3.29-6.58v-14.34c0-12.49.25-15.19 1.94-21.09 3.04-10.55 7.26-17.63 14.93-25.4 5.65-5.74 8.27-7.59 14.85-10.8 9.37-4.56 14.93-5.91 22.7-5.4 10.72.59 16.45 6.83 17.63 19.24.59 5.15 1.18 7.34 2.53 8.77 1.6 1.77 1.69 1.94.34 3.29-2.62 2.62.08 1.52 9.87-4.13 14.77-8.44 18.9-10.38 25.06-11.81 7.85-1.86 20.25-1.27 25.82 1.18 9.87 4.39 16.45 11.64 18.39 20.25l1.01 4.39h3.46c4.05 0 7.26.76 7.26 1.69 0 .42-2.19.51-4.98.25-6.41-.59-10.72.84-12.82 4.3-2.36 3.88-2.03 5.82 1.77 10.21 3.29 3.8 4.47 7.93 2.36 8.1-.59.08-3.54 0-6.58-.08-10.63-.25-12.66 4.64-7.17 16.88 1.6 3.54 3.63 10.13 4.56 14.6.93 4.39 2.03 8.86 2.62 9.87.51 1.01 1.1 2.53 1.27 3.54.25 1.35.08 1.43-.76.76-1.27-1.1-2.62-4.13-3.38-7.85-.93-4.05-2.19-2.53-2.19 2.53 0 5.82 1.01 9.62 3.54 13.33 2.87 4.13 5.82 5.4 15.27 6.5 8.61 1.01 8.61 1.1 5.74 2.28-1.6.68-4.22 2.28-5.74 3.63-2.28 2.03-2.78 3.04-2.78 5.74 0 4.05 1.86 5.4 8.86 6.58 2.87.42 6.41 1.35 8.02 2.11 2.78 1.18 2.36 1.27-9.87 1.18-8.52-.08-12.91-.42-12.91-1.01 0-.51.59-1.94 1.18-3.21 1.01-1.94 1.1-2.36.08-2.36-.59 0-1.77 1.52-2.62 3.38l-1.52 3.38H786.44l-164.19-.08-2.95-2.11zm292.7-9.28c1.77-1.43 2.62-2.95 2.62-4.47 0-5.32-4.89-5.82-9.53-1.1-2.87 2.87-3.12 3.54-2.36 5.48 1.18 3.12 5.65 3.12 9.28.08zm-114.24-27.34c1.18-.51-.34-.76-4.64-.76-6.92-.08-12.49-2.11-17.47-6.33-3.12-2.62-7-9.96-7-13.33 0-1.27-.34-2.36-.84-2.36-1.43 0-.93 5.82.84 9.2 3.29 6.5 8.18 10.8 15.1 13.25 3.46 1.27 11.48 1.43 14.01.34zm65.81-70.88c1.77-.42.17-.68-5.23-.76-4.39 0-8.02.25-8.27.76-.59 1.01 9.62 1.01 13.5 0"/><path d="M905.09 663.53c-1.18-1.18-.59-4.56 1.01-5.4 4.47-2.36 8.69.25 5.48 3.38-1.77 1.77-5.57 2.95-6.5 2.03zM1034.1 66.57c-2.7-.42-5.48-1.18-6.07-1.69-1.6-1.35-1.6-6.67.08-6.67.68 0 1.27-.51 1.27-1.18 0-.68 1.01-2.36 2.19-3.8 1.94-2.36 2.62-2.62 7-2.62 2.62 0 5.23.42 5.82 1.01 1.18 1.18 1.35 5.65.17 7.43-.59.93-.34 1.35 1.1 1.69 2.78.68 3.12 5.48.42 6.24-2.45.59-5.57.51-11.98-.42zm4.98-1.52c2.19-.51 1.86-.68-2.36-1.1-6.5-.76-7.68-1.77-6.07-4.89 2.45-4.81 9.03-7.51 11.31-4.72.76.93.51 1.77-1.35 3.97l-2.36 2.78 2.95-1.69c5.23-3.04 3.97-7.93-2.11-7.93-2.03 0-3.54 1.01-7.09 4.56-3.97 4.05-4.39 4.72-3.46 6.33 1.6 3.04 5.06 3.97 10.55 2.7z"/></g><g fill="#da8733"><path d="M953.44 674.24c0-1.86 1.1-3.29 2.19-2.87.68.25 1.18-.08 1.18-.59 0-.76.59-.59 1.69.42 2.7 2.45 2.11 3.8-1.69 3.8-1.86 0-3.38-.34-3.38-.76zM654.08 260.55c-1.6-1.6-1.27-7.76.51-9.37 1.86-1.69 10.29-1.94 11.81-.42 1.6 1.6 1.27 7.76-.51 9.37-1.86 1.69-10.29 1.94-11.81.42M1002.21 157.87c-6.07-1.94-9.87-4.3-13.67-8.52-1.69-1.86-3.38-3.38-3.88-3.38-.42 0-2.87 1.52-5.48 3.29-10.63 7.43-22.7 6.75-33.58-1.77-2.53-2.03-2.95-2.78-2.19-3.71 1.27-1.52-2.11-1.6-13.25-.17-9.62 1.18-13.5.25-16.79-3.8-1.18-1.43-2.78-3.38-3.46-4.3-1.18-1.35-2.11-1.43-8.86-.93l-7.51.59-3.12-2.7c-3.38-3.04-2.78-3.04-21.77-1.18l-5.91.59 3.63-4.13c1.94-2.28 5.15-6.24 7.17-8.77 4.39-5.65 10.72-10.55 15.69-12.23 5.32-1.77 13.92-1.6 20.08.51 5.91 1.94 7.43 3.29 6.58 5.82-.51 1.69-2.11 2.36-2.11.84 0-1.6-5.57-.93-7.26.93-1.52 1.69-1.52 1.77.08 2.95 2.03 1.52 5.06 1.52 6.58-.08.68-.68 1.43-1.01 1.69-.68.25.25 1.1-1.01 1.86-2.78 1.1-2.7 1.27-4.98.76-12.99-.68-11.48.08-13.84 5.91-20.08 4.98-5.32 10.46-8.02 17.13-8.44 8.77-.59 15.19 2.87 18.39 9.96 1.43 3.12 1.43 4.13.59 9.2-.51 3.12-1.18 6.41-1.52 7.26-.42 1.1-.25 1.35.59 1.1.68-.25 1.43-2.11 1.69-4.56 1.6-12.4 8.94-18.9 20.17-17.8 6.24.68 12.4 3.71 17.72 8.69 4.72 4.39 7.93 10.97 7.09 14.43-.84 3.63-4.47 7-7.43 7-4.13 0-8.52-1.52-11.05-3.88-3.04-2.87-4.81-2.11-1.86.84 6.33 6.33 17.04 6.24 20.42-.34 1.77-3.46 1.6-6.92-.84-12.66-3.54-8.52-2.36-23.71 2.62-32.91 5.15-9.53 15.52-16.54 25.65-17.47 9.11-.84 12.66 2.36 14.34 12.74.68 4.3.68 6.07-.08 6.92-1.27 1.52 3.04-.42 12.74-5.74 7.26-3.97 12.4-5.65 17.55-5.74h2.7v102.35l-4.13-.42c-5.65-.59-10.21-3.12-13.08-7.34-4.64-6.83-8.27-6.41-19.15 2.19-14.6 11.48-28.69 15.36-41.43 11.31zm69.61-32.32c2.28-2.7 1.86-4.05-1.35-4.05-4.98 0-8.35 3.88-4.98 5.82 1.86 1.1 4.39.42 6.33-1.77m-28.52-61.26c2.03-.42 1.35-.68-3.38-1.01l-5.91-.42 5.06-2.53c5.57-2.78 7.09-5.65 4.13-7.76-3.21-2.36-6.5-1.35-11.22 3.46-3.97 4.05-4.39 4.72-3.46 6.33 1.77 3.38 6.33 3.97 14.77 1.94z"/><path d="M1030.22 60.41c0-.68.93-2.36 2.11-3.63l2.03-2.36-1.69 3.63c-1.86 3.71-2.45 4.3-2.45 2.36"/></g><g fill="#f8c387"><path d="M182.84 615.01c-11.05-1.6-21.68-4.98-21.68-6.92 0-.59 3.63-4.47 8.1-8.52 4.39-4.13 9.45-9.45 11.22-11.81 3.12-4.13 3.71-4.56 11.56-7.26 15.78-5.32 19.41-7.93 20.5-15.02.84-5.23 1.52-6.07 8.1-10.55 2.78-1.94 7.09-5.57 9.53-8.18 8.77-9.03 23.37-29.7 29.19-41.09.76-1.52 1.77-5.91 2.28-9.7 1.18-8.86 3.8-19.41 5.82-23.46.84-1.69 3.88-5.91 6.75-9.28 7.51-9.03 11.48-17.72 20.25-44.3 2.36-7.43 6.07-17.13 8.18-21.52 2.03-4.39 5.06-11.64 6.75-16.03 1.6-4.39 4.3-10.55 5.82-13.67 1.6-3.12 2.87-5.91 2.87-6.16 0-.34-.84-.42-1.86-.25-1.18.17-3.29 2.19-5.65 5.65l-3.71 5.32-1.6-1.94c-2.87-3.71-13.84-20.5-17.3-26.49-9.45-16.37-11.64-33.41-6.92-55.27 2.95-13.84 2.87-13.75 1.1-13.33-1.1.17-2.19 2.28-3.97 7.85-3.88 12.23-4.98 18.73-5.06 29.11-.08 11.48 1.18 16.96 6.58 28.43 2.19 4.72 4.47 11.22 5.48 16.12 2.45 11.48 5.4 20.08 8.86 25.48 5.99 9.45 5.99 10.97.17 7.68-13.16-7.43-25.99-18.48-31.81-27.34-3.04-4.64-7.76-17.38-9.62-26.07-.34-1.35-.93-2.36-1.43-2.36-.68 0-.84 2.87-.59 8.94l.34 9.03-3.97-4.39c-5.15-5.82-8.02-11.22-10.04-19.15-2.95-11.39-2.03-19.83 3.63-34.09 1.6-3.97 3.71-10.55 4.81-14.6s2.36-7.34 2.87-7.34 3.38 6.24 6.33 13.92 5.82 14.18 6.24 14.51c1.01.59 0-6.75-1.94-14.51-2.87-11.31-7-20-17.47-37.38-15.27-25.14-18.39-30.71-22.7-41.09-8.77-20.92-15.1-29.78-25.73-36.03-2.95-1.77-5.65-3.29-6.16-3.46-.42-.17.34-1.94 1.77-4.05 6.83-9.87 9.11-18.31 8.35-30.29-.42-8.27-2.03-15.27-3.46-15.78-.51-.17-.76 3.29-.59 9.28.59 20.5-5.74 34.76-18.82 42.44-5.32 3.04-8.27 3.8-17.97 4.56-7.59.51-9.37 1.01-14.77 3.63-3.29 1.69-8.86 5.15-12.23 7.68-3.38 2.53-10.13 6.58-14.93 9.03-12.23 6.07-14.34 8.1-17.13 16.37-1.86 5.48-2.78 7.09-5.15 8.61-4.3 2.87-11.31 4.72-15.36 4.05-4.22-.76-4.98-2.36-2.28-5.32 1.18-1.27 4.22-5.15 6.83-8.61 2.53-3.46 6.16-7.85 8.1-9.7 3.97-3.8 4.39-5.48 1.35-5.48-2.95 0-8.94 5.74-14.09 13.33-8.27 12.32-17.38 14.43-26.24 6.24-2.36-2.28-4.22-7.26-5.23-14.51-.34-2.11-1.69-6.33-3.04-9.45-3.63-8.35-3.38-9.53 3.29-17.3 7-8.18 11.39-14.26 25.73-35.44 17.38-25.65 16.2-23.03 16.2-36.87V89.18l5.48-4.64c3.04-2.62 9.7-9.11 14.77-14.43 5.15-5.4 14.93-15.36 21.85-22.19l12.49-12.49-.68-3.21c-.34-1.69-.68-9.28-.68-16.79l-.08-13.75h2.19c2.78 0 8.86 3.88 12.82 8.35 4.13 4.56 6.92 10.55 8.69 18.48.76 3.29 1.69 6.07 2.11 6.07s1.69-1.94 2.87-4.3c5.06-9.96 12.57-14.93 23.46-15.52 4.13-.25 5.32-.17 3.54.34-4.98 1.35-8.52 3.29-11.31 6.33-3.46 3.54-2.87 3.8 1.94 1.01 6.16-3.54 11.48-4.81 23.29-5.57 6.24-.42 13.5-1.18 16.12-1.77 2.53-.51 5.57-.76 6.67-.59 1.86.25 1.77.42-1.35 2.45-1.77 1.18-5.91 2.87-9.2 3.63-3.21.84-6.67 1.86-7.59 2.28-.93.42-5.06.84-9.2.93-10.13.34-10.21 1.69-.34 3.97 11.81 2.7 16.37 2.45 25.06-1.52 4.47-2.03 9.2-3.54 12.32-3.88 7.26-.76 10.21-1.86 16.54-5.99 9.11-6.16 9.79-4.72 1.6 3.54-5.57 5.65-8.52 7.85-13.42 10.13-3.38 1.6-7.26 3.21-8.61 3.46s-2.87 1.01-3.46 1.77c-.93 1.1.17 1.18 10.29.68 12.32-.51 12.66 0 1.6 3.21-2.62.76-5.32 2.03-5.91 2.78-1.1 1.27-.51 1.35 6.83.93 6.75-.34 10.04-1.1 21.09-4.89l13.08-4.39 18.9.59c20.76.68 21.09.84 9.37 4.72-3.04 1.01-5.82 2.11-6.33 2.45-.42.25-2.45 1.01-4.3 1.6-1.94.68-4.64 2.03-5.91 3.12l-2.45 1.94 16.03.08 16.03.17-3.21 1.43c-1.77.84-3.63 1.94-4.22 2.53-.51.51-2.11.93-3.54.93-3.54.08-6.07 2.03-4.72 3.71 1.94 2.28 7.85 2.53 11.73.59 2.19-1.1 5.06-1.77 7.93-1.77 10.8 0 20.67-2.87 29.28-8.44 2.87-1.86 5.99-3.38 7-3.38 1.77 0 1.77 0-.25 2.19-3.54 3.88-11.73 9.53-15.36 10.63-4.22 1.18-8.35 3.97-7.59 5.15.25.42 3.29.59 6.92.42 5.48-.34 7.85-1.01 16.96-5.06 12.23-5.48 16.37-6.83 19.83-6.41 2.36.25 2.11.42-3.88 4.56-6.75 4.64-14.09 8.77-15.61 8.77-.51 0-1.43.59-2.03 1.27-.93 1.18 0 1.27 8.52.84 10.8-.51 10.55 0-1.77 3.38-3.97 1.01-8.27 2.36-9.7 2.95-3.04 1.18-2.28 1.77 4.47 3.46 2.36.59 4.39 1.35 4.39 1.6 0 .34-6.5.84-14.51 1.1-12.82.51-14.77.76-16.2 2.19-1.94 1.94-2.28 1.86 9.62 3.46 8.02 1.1 19.83 4.72 25.99 8.02l3.97 2.19-3.8-.51c-2.11-.25-8.52-.68-14.34-.93-8.44-.42-11.64-.25-16.03.93-9.96 2.62-12.32 4.89-8.02 7.68 1.77 1.1 3.29 1.27 7.85.84 10.21-1.1 9.62-1.18 11.9 2.19 1.86 2.95 2.36 3.21 5.99 3.21 2.45 0 7.17-1.18 12.07-2.95 4.47-1.6 10.72-3.12 13.84-3.46 5.23-.51 6.07-.84 9.37-4.05 3.29-3.21 3.97-3.46 8.18-3.46 2.45 0 4.81.34 5.23.68.34.42.68 3.97.76 8.02l.08 7.17 4.13 1.27c2.28.68 5.23 1.94 6.58 2.95 2.19 1.6 2.36 2.03 1.94 5.74-.25 2.28-.93 4.89-1.43 5.82-1.18 2.19-4.56 2.19-6.75 0-2.45-2.45-5.99-2.11-12.49 1.18-10.21 5.15-10.13 7.34.42 7.93 5.4.25 7.51 0 11.64-1.6 5.65-2.11 9.28-2.28 27.42-1.1l11.39.76-3.88 1.94c-2.19 1.1-6.33 2.11-9.53 2.45-3.04.25-6.24.93-7 1.52-1.18.93-.34 1.6 6.24 5.15l7.59 4.13-15.61.17c-12.91.08-15.78.34-16.88 1.43-1.27 1.18-1.1 1.6 1.52 4.3l2.87 2.95h-4.3c-4.3 0-6.24 1.01-4.39 2.11.51.34 4.56 2.03 9.03 3.71 5.57 2.11 12.07 5.65 20.17 10.88 13.58 8.86 20.67 12.4 26.92 13.58 7.93 1.52 29.11 1.94 44.21 1.01 29.11-1.94 47.76-5.23 79.4-13.92 30.29-8.35 31.56-8.52 50.12-8.44 17.63 0 26.24 1.35 48.52 7.51 21.85 5.99 32.99 11.9 46.58 24.81 8.94 8.44 10.21 8.86 28.94 8.94 11.05 0 15.86-.34 20.92-1.52 3.54-.84 7.17-1.43 7.93-1.27 2.53.51-1.69 3.54-8.44 6.16-3.38 1.27-6.67 2.87-7.34 3.46-1.01 1.01-.84 1.18 1.52 1.18 4.39 0 22.78-4.13 30.04-6.83 10.13-3.71 22.11-6.83 25.14-6.5 2.36.25 2.11.51-4.05 3.63-7.09 3.54-15.44 8.44-16.62 9.62-.84.84 12.32 1.77 24.89 1.77 16.79 0 29.45-2.62 45.39-9.45 25.06-10.8 31.22-12.74 44.3-13.75 10.8-.93 33.08 2.11 38.39 5.23l2.11 1.18-2.11-.42c-1.18-.25-6.33-.76-11.56-1.01-9.28-.59-24.05.76-25.99 2.28-.51.34-2.53.93-4.56 1.27s-4.64 1.52-5.91 2.62l-2.19 1.94 10.55-.51c11.22-.59 25.57.59 34.17 2.7 7 1.77 13.25 3.8 12.82 4.22-.17.25-4.13-.25-8.69-1.01-12.49-2.03-37.55-.34-40.08 2.7-.51.68-2.36 1.18-4.05 1.18s-4.89.93-7.26 2.11c-2.28 1.1-4.64 2.11-5.15 2.11s-1.6.76-2.45 1.69c-2.03 2.19-2.95 2.28 21.6-1.35 25.73-3.71 42.53-4.56 51.55-2.53 10.72 2.36 10.72 3.38.17 4.64-5.06.59-9.7 1.43-10.46 1.77-.68.42-3.54 1.1-6.33 1.6-2.78.51-5.57 1.43-6.16 2.11-.93.93 2.45 1.1 20.25 1.01 20.08-.08 21.68 0 27.67 1.86 8.02 2.53 25.65 11.14 29.53 14.51l2.95 2.62-4.56-2.28c-2.53-1.18-7.93-3.46-11.98-5.06-10.63-4.13-13.75-3.71-8.1.93 1.43 1.27 6.92 7 11.98 12.74 5.15 5.74 11.98 12.49 15.19 15.1 6.07 4.81 22.95 13.75 34.17 18.06 5.48 2.03 6.33 2.7 6.58 4.64.34 2.45-.08 2.53-5.65 1.27-5.99-1.35-5.82.34.25 3.97 4.64 2.78 5.57 3.63 5.57 5.57 0 2.28-.17 2.19-19.58-7.59-20.67-10.46-30.46-14.34-33.24-13.33-1.35.51-1.18.84 1.35 2.36 10.88 6.67 22.95 15.19 39.32 27.93 1.01.84 4.22 1.94 7 2.36l5.15.93v11.39l-4.47-2.28c-4.05-2.03-5.74-2.28-16.71-2.78-14.18-.59-22.53-1.94-37.04-6.07-10.63-2.95-15.52-3.63-15.02-2.11.17.51 5.91 4.81 12.82 9.7 6.92 4.89 12.4 8.86 12.15 8.86-1.1 0-12.82-5.15-16.45-7.26-2.19-1.27-9.87-6.07-16.96-10.72-18.48-11.9-26.33-15.19-43.54-17.97-6.41-1.01-9.28-1.18-9.87-.59-.68.68.59 1.52 4.3 2.87 6.92 2.53 14.09 7.17 17.97 11.73 3.12 3.63 3.63 5.65.84 3.21-4.47-3.97-17.55-8.86-29.95-11.22-13.92-2.7-41.34-4.72-42.36-3.12-.51.76 15.95 13.5 21.52 16.54 2.11 1.18 8.94 4.39 15.27 7.17 13.75 5.99 20.42 9.37 19.83 9.87-.25.25-2.62-.17-5.32-.84-2.78-.68-13.5-3.04-23.88-5.15-24.64-5.06-37.21-8.77-48.68-14.26-13.42-6.41-17.55-9.37-29.28-20.5-14.18-13.58-18.06-15.52-13.84-6.83 4.3 8.77 12.91 19.07 16.62 19.83 3.04.59 3.88 1.52 4.64 5.23l.59 2.87-2.78-1.94c-6.67-4.64-17.47-16.79-25.99-29.36-9.79-14.34-16.54-21.35-25.82-26.83-9.45-5.57-32.23-14.6-34-13.5-.42.25.51 3.04 2.03 6.16 4.64 9.87 5.82 16.54 5.74 32.32-.08 16.71-1.35 22.44-8.27 36.7-5.48 11.22-11.14 19.41-21.18 30.8-14.6 16.54-16.96 21.09-16.28 31.98.76 12.82 6.33 22.44 22.19 38.73 6.5 6.67 12.49 13.25 13.25 14.77 2.28 4.22 1.94 9.87-.84 13.92-4.05 6.07-6.41 7.43-37.29 20.5-26.58 11.22-53.58 25.57-61.68 32.65-2.45 2.19-4.64 5.32-6.16 8.52-1.27 2.78-2.7 5.4-3.29 5.74-.51.34-2.95.84-5.48 1.18-8.18 1.1-8.52 2.95-2.62 13.42 4.72 8.52 5.06 12.4 1.6 18.31-6.24 10.8-28.1 23.71-38.47 22.87l-3.29-.25.08-10.63c.17-14.51 1.27-18.73 7.93-32.06 3.29-6.67 6.16-13.58 6.75-16.45 3.12-15.86 5.57-19.07 20-26.07 18.14-8.77 47.67-27.17 56.53-35.27 4.56-4.22 6.33-7.85 5.57-11.73-.68-3.54-6.67-9.96-24.3-26.24-33.75-31.05-38.98-37.8-52.23-67.67-3.29-7.43-7.34-15.02-9.79-18.31-3.88-5.32-5.91-7-5.91-4.89 0 1.18 10.8 29.95 13.5 35.94l2.28 5.06-5.82.93c-3.21.51-6.5 1.52-7.34 2.28s-2.28 1.35-3.29 1.35-6.5 3.12-12.15 7c-20 13.58-21.09 14.01-58.3 22.95-51.05 12.32-64.13 13.25-121.67 8.44-13.42-1.18-26.83-2.11-29.7-2.11-2.95 0-5.32-.34-5.32-.68 0-.42 3.8-3.63 8.44-7.26 9.28-7.09 14.51-13.08 18.56-21.43 4.64-9.45 8.52-28.86 5.74-28.86-.76 0-2.11 3.21-3.88 9.53-3.97 13.67-8.52 22.53-14.85 29.02-2.87 2.87-5.91 5.32-6.67 5.32-1.35 0-1.35-.25.25-3.38 1.69-3.21 1.69-3.38.17-3.38-1.1 0-3.29 2.78-7.17 9.2-10.46 17.13-18.06 26.41-41.68 51.13-22.53 23.63-25.48 27.34-32.99 42.61-6.33 12.74-6.67 13.16-11.98 17.13-9.62 7.09-11.73 9.03-15.02 13.92-4.64 6.83-19.07 32.82-27 48.68-9.03 18.06-10.46 19.32-23.2 20.33-6.33.59-7.17.84-9.62 3.38-2.62 2.53-2.78 3.12-2.78 8.27 0 6.58-3.21 15.61-6.5 18.23-1.94 1.52-3.38 1.69-12.82 1.6-5.82-.08-12.82-.42-15.52-.84zm569.87-170.1c1.01-2.78.08-6.41-1.52-5.82-.68.25-1.35.51-1.52.51-.68 0-1.43 5.91-.93 7.17.68 1.77 2.95.68 3.97-1.86M648 316.07c.51-.68.84-2.11.68-3.21-.17-1.6-.76-1.94-3.21-1.94s-3.04.34-3.21 1.94c-.34 2.36 1.18 4.39 3.21 4.39.84 0 1.94-.59 2.53-1.18m253.97.34c0-1.35-7-5.48-21.52-12.66-16.54-8.27-21.09-9.03-14.09-2.36 6.83 6.5 16.03 11.39 26.75 14.18 6.83 1.86 8.86 2.03 8.86.84m154.83-5.06c1.86-2.95-36.37-21.68-38.98-19.07-1.27 1.27 12.15 11.48 20.67 15.69 7.51 3.71 17.04 5.48 18.31 3.38m-40.92-10.97c0-1.52-12.07-8.77-19.41-11.73-8.69-3.38-15.69-4.98-16.88-3.8-.59.59 2.11 2.36 8.18 5.4 17.8 8.86 28.1 12.57 28.1 10.13zm-337.33-1.86c3.46-2.87 1.6-7.43-3.04-7.43-4.3 0-5.99 2.87-3.88 6.83 1.01 1.86 4.89 2.19 6.92.59zm-39.49-18.06c.76-.68 1.35-1.69 1.35-2.11 0-2.03-1.86-4.13-3.63-4.13-2.36 0-5.65 2.19-5.65 3.8 0 1.43 3.21 3.8 5.23 3.8.76 0 2.03-.59 2.7-1.35zm24.64-23.2c1.94-2.19.76-4.47-2.53-4.81-2.36-.34-5.57 1.77-5.57 3.63 0 3.12 5.57 3.97 8.1 1.18m347.96-2.11c0-2.28-9.03-10.88-14.09-13.42-4.13-2.03-6.16-2.53-12.91-2.78-7.51-.34-12.66.59-12.66 2.11 0 .42 4.05 2.11 9.11 3.88 4.98 1.77 13.58 5.06 19.15 7.34 11.64 4.72 11.39 4.64 11.39 2.87zM58.31 195.67c4.05-4.3 4.05-9.11.08-13.58-1.77-2.03-4.39-1.94-4.39.08 0 .93.42 1.94.84 2.19 1.52.93.84 3.29-1.69 6.33-2.36 2.7-3.21 5.74-1.94 7 1.35 1.43 4.81.42 7.09-2.03zm553.25-4.64c2.11-1.43 2.62-5.99.84-7.76-1.77-1.77-7.17-1.27-8.61.84-1.86 2.62-1.69 3.8.76 6.16 2.36 2.45 4.3 2.62 7 .76zm-273.71-30.04c.68-1.18.59-1.77-.51-2.87-2.53-2.53-6.33.76-4.05 3.54 1.35 1.52 3.29 1.27 4.56-.68zm-197.02-47.42c2.95-1.6 5.32-5.15 4.98-7.51-.25-1.69-.68-1.86-5.57-1.77-3.88.08-5.91.51-7.59 1.77-2.53 1.94-4.05 5.32-3.29 7.34.68 1.77 8.1 1.86 11.48.17zm-13.84-8.18c2.45-4.64 2.95-4.89 12.66-5.15 5.57-.25 6.75-.51 7-1.69.42-2.11-2.62-2.62-11.64-1.77l-7.85.68-1.6 3.12c-2.03 3.88-3.12 10.55-1.6 9.62.51-.34 1.94-2.53 3.04-4.81zm146.56.76c2.28-1.86 2.53-4.47.59-6.83-2.11-2.78-5.23-2.95-7-.42s-1.69 4.56.34 6.58c1.94 1.94 4.13 2.19 6.07.68zm-36.03-35.18c.59-1.1-24.05-13.92-29.95-15.61-5.57-1.6-12.82-2.11-13.16-.93-.42 1.35 29.87 15.44 35.1 16.37 6.41 1.01 7.43 1.01 8.02.17z"/><path d="M127.15 572.32c-.68-1.77-1.69-5.32-2.28-7.85s-2.53-8.02-4.39-12.07c-3.71-8.18-3.8-9.11-1.52-23.12 1.52-9.11.42-17.97-3.29-25.65-4.64-9.79-4.13-11.31 10.8-34.09 12.74-19.41 17.21-28.52 20.59-42.36 2.28-8.94 3.54-12.4 7-18.06 6.24-10.63 9.53-13.5 17.63-15.78 17.21-4.89 21.52-6.58 33.58-12.66 7-3.63 17.97-9.7 24.22-13.42 21.01-12.57 21.26-12.57 24.64-5.4 3.04 6.33 11.14 15.78 20.59 23.88 7 6.07 17.21 13.75 19.15 14.43 1.01.34-2.36 11.05-3.88 12.32-2.03 1.69-29.87 6.41-49.95 8.44-14.85 1.6-42.86 3.46-43.37 2.95-.76-.68 2.28-2.78 7.93-5.48l5.06-2.36h-4.64c-7.34.08-14.18 3.04-17.55 7.51-1.52 2.11-3.71 4.98-4.81 6.41s-4.47 3.88-7.51 5.4c-7 3.46-10.97 7.85-16.12 17.72-4.98 9.7-7.51 16.62-9.28 24.98-1.18 5.65-1.27 7.68-.42 13.16 1.35 8.69.93 10.13-4.39 13.33-5.23 3.21-5.74 3.8-5.74 7.26 0 3.8 3.21 8.1 7.17 9.45 8.02 2.78 7.93 2.7 9.53 7.26 3.12 8.27 3.21 10.97.25 16.79-3.38 6.83-9.96 15.52-17.8 23.63-7.43 7.51-9.28 8.1-11.22 3.38zM446.85 549.37c-.34-.51.25-2.53 1.43-4.56 4.47-7.85 14.43-23.88 15.69-25.4.76-.84 4.13-2.87 7.51-4.47 9.79-4.64 13.75-9.11 16.96-19.07.59-1.77 2.28-4.05 3.71-5.15 1.52-1.1 10.46-5.06 20-8.94 20.33-8.1 45.9-20.5 51.89-25.06 5.23-4.05 7.68-7.59 8.35-12.23.76-5.15-.34-10.04-6.16-26.66-2.87-8.02-5.23-16.03-5.32-17.89l-.25-3.38 7.34-2.53c8.18-2.78 14.77-5.91 23.29-11.14 9.79-5.99 20-10.72 26.75-12.49 10.38-2.62 11.22-2.45 15.19 3.12 6.16 8.77 6.24 7.51-1.27 15.86-7.59 8.44-9.96 13.42-10.72 22.44-.59 7.43.84 15.36 4.89 25.99 4.98 13.33 4.22 20.76-2.7 26.58-5.23 4.39-11.31 6.67-36.62 13.58-28.94 8.02-49.19 16.96-57.46 25.4-1.94 2.03-4.81 6.16-6.33 9.2-2.7 5.32-2.95 5.57-5.4 5.15-6.33-1.18-17.04-1.52-18.82-.59-2.45 1.35-2.36 4.72.25 8.94 1.1 1.86 2.11 4.22 2.11 5.23 0 3.46-3.63 12.99-5.4 14.18-4.3 2.78-47.5 6.24-48.94 3.88zm150.36-98.13c1.35-1.35 1.27-4.47-.17-5.65-.68-.59-2.28-.93-3.63-.76-4.3.51-3.46 7.43.93 7.43 1.01 0 2.28-.42 2.87-1.01zM298.6 376.23c-2.95-3.21-5.65-7.93-7-12.32-.93-2.95.84-2.28 2.87 1.1 1.01 1.6 3.71 5.15 5.99 7.76 2.28 2.62 4.13 5.32 4.13 5.91 0 2.11-2.87.93-5.99-2.45M118.46 44.97c-4.72-5.06-8.69-12.91-9.28-18.39-.59-5.15 1.01-13.92 2.53-13.92.59 0 2.19 1.77 3.63 4.05 2.03 3.29 3.71 4.64 10.13 8.02 4.13 2.28 9.03 5.57 10.88 7.43l3.21 3.29-2.45 2.53c-1.35 1.35-2.87 2.53-3.38 2.53s-2.28 1.35-3.88 3.04c-1.52 1.69-3.97 3.54-5.23 4.22-2.36 1.27-2.45 1.18-6.16-2.78z"/></g></svg>